<svg height="40" version="1.1" width="40" xmlns="http://www.w3.org/2000/svg" style="overflow: hidden; position: relative; top: -0.84375px;"><defs style="-webkit-tap-highlight-color: rgba(0, 0, 0, 0);"></defs><circle cx="20" cy="20" r="15" fill="#ffffff" stroke="#808080" stroke-width="1.5" stroke-linecap="round" stroke-linejoin="round" stroke-opacity="1" style="-webkit-tap-highlight-color: rgba(0, 0, 0, 0); stroke-linecap: round; stroke-linejoin: round; stroke-opacity: 1;" id="svg_1"></circle><circle cx="20" cy="20" r="12" fill="none" stroke="#808080" stroke-width="1.5" stroke-linecap="round" stroke-linejoin="round" stroke-opacity="1" style="-webkit-tap-highlight-color: rgba(0, 0, 0, 0); stroke-linecap: round; stroke-linejoin: round; stroke-opacity: 1;"></circle><circle cx="20" cy="20" r="10" fill="#ffffff" stroke="#808080" stroke-width="1.5" stroke-linecap="round" stroke-linejoin="round" stroke-opacity="1" style="-webkit-tap-highlight-color: rgba(0, 0, 0, 0); stroke-linecap: round; stroke-linejoin: round; stroke-opacity: 1;"></circle><path fill="#ffffff" stroke="#808080" d="M15,5L15,8M20,6L18.5,9M24,10L21,11.5M25,15L22,15M24,20L21,18.5M20,24L18.5,21M15,25L15,22M10,24L11.5,21M6,20L9,18.5M5,15L8,15M6,10L9,11.5M10,6L11.5,9M17,8L15,15L19,15" stroke-width="1.5" stroke-linecap="round" stroke-linejoin="round" stroke-opacity="1" transform="matrix(1,0,0,1,5,5)" style="-webkit-tap-highlight-color: rgba(0, 0, 0, 0); stroke-linecap: round; stroke-linejoin: round; stroke-opacity: 1;"></path><text x="20" y="50" text-anchor="middle" font="10px &quot;Arial&quot;" stroke="none" fill="#000000" style="-webkit-tap-highlight-color: rgba(0, 0, 0, 0); text-anchor: middle; font-style: normal; font-variant: normal; font-sidebar_position: normal; font-stretch: normal; font-size: 12px; line-height: normal; font-family: Arial, Helvetica, sans-serif;" font-size="12px" font-family="Arial, Helvetica, sans-serif"><tspan style="-webkit-tap-highlight-color: rgba(0, 0, 0, 0);" dy="4">Timer</tspan></text></svg>